<svg width="414" height="110" viewBox="0 0 414 110" fill="none" xmlns="http://www.w3.org/2000/svg">
<g clip-path="url(#clip0)">
<rect x="-4" y="53" width="420" height="57" fill="#302E26"/>
<path d="M90.6674 44.2677C55.9804 39.0679 6.82054 51.4642 -36 53.3371H438.375C313.502 6.70815 258.361 69.4059 90.6674 44.2677Z" fill="#FFC639"/>
<path d="M358.733 52.1719C359.462 51.7732 362.762 51.4718 365.642 52.1719L388.263 52.1719C386.593 54.2345 378.645 55.8573 378.131 60.6845C377.427 67.2773 378.073 68.1363 378.13 71.8186C378.188 75.501 375.641 77.6111 373.245 77.7168C370.848 77.8225 368.468 76.125 368.106 72.5804C367.744 69.0358 370.509 65.4509 371.349 62.5281C372.189 59.6053 372.476 57.3995 369.156 53.9587C368.297 53.0691 367.017 52.5063 365.642 52.1719L358.733 52.1719Z" fill="#FFC639"/>
<path d="M372.292 60.4165C372.859 59.8672 375.338 57.9485 377.983 57.183L400.153 44.5861C398.475 48.8844 391.559 50.7612 390.798 67.3987C390.108 82.5058 393.213 88.9882 393.282 97.5592C393.351 106.13 389.964 110.544 387.548 110.082C385.132 109.62 382.727 104.974 382.352 96.6331C381.977 88.2922 384.755 80.7811 385.593 74.2395C386.432 67.698 386.881 65.78 384.311 59.88C382.946 56.7459 380.395 56.4848 377.983 57.183L372.292 60.4165Z" fill="#FFC639"/>
<path d="M64.0728 13.9992C59.4117 9.70699 51.4213 26.5959 44.9291 38.5395C44.9291 38.5395 55.0836 28.5152 57.4141 26.5959C59.7446 24.6767 68.7338 18.2914 64.0728 13.9992Z" fill="#FFC639"/>
<path d="M25.2308 2.12767C30.3618 -3.70527 36.4041 21.8027 41.5155 39.9232C41.5155 39.9232 32.5377 24.2577 30.4338 21.2208C28.33 18.1839 20.0998 7.96061 25.2308 2.12767Z" fill="#FFC639"/>
<path d="M15.5338 33.5174C16.5615 29.9954 24.6892 35.1659 30.8259 38.5447C30.8259 38.5447 23.5002 37.2615 21.919 37.1432C20.3378 37.025 14.5061 37.0395 15.5338 33.5174Z" fill="#FFC639"/>
</g>
<defs>
<clipPath id="clip0">
<rect width="414" height="110" fill="white"/>
</clipPath>
</defs>
</svg>
