<svg width="414" height="110" viewBox="0 0 414 110" fill="none" xmlns="http://www.w3.org/2000/svg">
<g clip-path="url(#clip0)">
<path d="M90.6674 43.2677C55.9804 38.0679 6.82054 50.4642 -36 52.3371H438.375C313.502 5.70815 258.361 68.4059 90.6674 43.2677Z" fill="#FFC639"/>
<path d="M358.733 51.1719C359.462 50.7732 362.762 50.4718 365.642 51.1719L388.263 51.1719C386.593 53.2345 378.645 54.8573 378.131 59.6845C377.427 66.2773 378.073 67.1363 378.13 70.8186C378.188 74.501 375.641 76.6111 373.245 76.7168C370.848 76.8225 368.468 75.125 368.106 71.5804C367.744 68.0358 370.509 64.4509 371.349 61.5281C372.189 58.6053 372.476 56.3995 369.156 52.9587C368.297 52.0691 367.017 51.5063 365.642 51.1719L358.733 51.1719Z" fill="#FFC639"/>
<path d="M372.292 59.4165C372.859 58.8672 375.338 56.9485 377.983 56.183L400.153 43.5861C398.475 47.8844 391.559 49.7612 390.798 66.3987C390.108 81.5058 393.213 87.9882 393.282 96.5592C393.351 105.13 389.964 109.544 387.548 109.082C385.132 108.62 382.727 103.974 382.352 95.6331C381.977 87.2922 384.755 79.7811 385.593 73.2395C386.432 66.698 386.881 64.78 384.311 58.88C382.946 55.7459 380.395 55.4848 377.983 56.183L372.292 59.4165Z" fill="#FFC639"/>
<path d="M64.0728 12.9992C59.4117 8.70699 51.4213 25.5959 44.9291 37.5395C44.9291 37.5395 55.0836 27.5152 57.4141 25.5959C59.7446 23.6767 68.7338 17.2914 64.0728 12.9992Z" fill="#FFC639"/>
<path d="M25.2308 1.12767C30.3618 -4.70527 36.4041 20.8027 41.5155 38.9232C41.5155 38.9232 32.5377 23.2577 30.4338 20.2208C28.33 17.1839 20.0998 6.96061 25.2308 1.12767Z" fill="#FFC639"/>
<path d="M15.5338 32.5174C16.5615 28.9954 24.6892 34.1659 30.8259 37.5447C30.8259 37.5447 23.5002 36.2615 21.919 36.1432C20.3378 36.025 14.5061 36.0395 15.5338 32.5174Z" fill="#FFC639"/>
</g>
<defs>
<clipPath id="clip0">
<rect width="414" height="110" fill="white"/>
</clipPath>
</defs>
</svg>
